M48
; DRILL file {KiCad 7.0.9} date Sat Nov 18 01:38:31 2023
; FORMAT={-:-/ absolute / inch / decimal}
; #@! TF.CreationDate,2023-11-18T01:38:31+02:00
; #@! TF.GenerationSoftware,Kicad,Pcbnew,7.0.9
; #@! TF.FileFunction,Plated,1,2,PTH
FMAT,2
INCH
; #@! TA.AperFunction,Plated,PTH,ViaDrill
T1C0.0157
; #@! TA.AperFunction,Plated,PTH,ComponentDrill
T2C0.0236
; #@! TA.AperFunction,Plated,PTH,ComponentDrill
T3C0.0394
%
G90
G05
T1
X4.0079Y-4.6929
X4.0079Y-5.0551
X4.0866Y-4.7874
X4.2283Y-4.7874
X4.3855Y-4.8944
X4.3893Y-4.9336
X4.622Y-4.8583
X4.6299Y-5.0315
X4.6772Y-5.0866
X4.685Y-4.8504
X4.7008Y-4.9011
X4.7008Y-4.9405
X4.7087Y-4.7165
X4.7165Y-4.811
X4.7323Y-4.9764
X4.7402Y-4.685
X4.7717Y-4.6614
X4.7722Y-4.9857
X4.8189Y-5.0157
X4.8189Y-5.1339
X4.8548Y-5.0674
X4.874Y-5.1102
X4.9213Y-4.9291
X4.9218Y-5.0911
X4.9485Y-4.7731
X4.9528Y-4.9291
X4.9599Y-5.1006
X4.9843Y-4.9291
X4.9963Y-5.0856
X5.0284Y-4.8021
X5.0315Y-4.5748
X5.0493Y-5.0729
X5.0709Y-4.5748
X5.0866Y-4.8189
X5.1181Y-4.5748
X5.1575Y-4.5748
X5.1732Y-4.8504
X5.2126Y-4.5748
X5.2919Y-4.7667
X5.3627Y-4.7884
T2
X5.2638Y-4.9459
X5.2638Y-5.1427
X5.2658Y-4.6526
X5.2658Y-4.8494
X5.313Y-4.9459
X5.313Y-5.1427
X5.315Y-4.6526
X5.315Y-4.8494
X5.3622Y-4.9459
X5.3622Y-5.1427
X5.3642Y-4.6526
X5.3642Y-4.8494
X5.4646Y-4.9459
X5.4646Y-5.1427
X5.4666Y-4.6526
X5.4666Y-4.8494
X5.5138Y-4.9459
X5.5138Y-5.1427
X5.5158Y-4.6526
X5.5158Y-4.8494
X5.563Y-4.9459
X5.563Y-5.1427
X5.565Y-4.6526
X5.565Y-4.8494
X5.6654Y-4.9459
X5.6654Y-5.1427
X5.6674Y-4.6526
X5.6674Y-4.8494
X5.7146Y-4.9459
X5.7146Y-5.1427
X5.7167Y-4.6526
X5.7167Y-4.8494
X5.7638Y-4.9459
X5.7638Y-5.1427
X5.7659Y-4.6526
X5.7659Y-4.8494
X5.8681Y-4.9459
X5.8681Y-5.1427
X5.8682Y-4.6526
X5.8682Y-4.8494
X5.9173Y-4.9459
X5.9173Y-5.1427
X5.9174Y-4.6526
X5.9174Y-4.8494
X5.9666Y-4.9459
X5.9666Y-5.1427
X5.9667Y-4.6526
X5.9667Y-4.8494
X6.0689Y-4.9459
X6.0689Y-5.1427
X6.069Y-4.6526
X6.069Y-4.8494
X6.1181Y-4.9459
X6.1181Y-5.1427
X6.1182Y-4.6526
X6.1182Y-4.8494
X6.1673Y-4.9459
X6.1673Y-5.1427
X6.1674Y-4.6526
X6.1674Y-4.8494
T3
X4.2862Y-4.3752
X4.2862Y-4.4752
X4.3862Y-4.3752
X4.3862Y-4.4752
X4.4862Y-4.3752
X4.4862Y-4.4752
X4.5862Y-4.3752
X4.5862Y-4.4752
X4.6862Y-4.3752
X4.6862Y-4.4752
X4.7862Y-4.3752
X4.7862Y-4.4752
X4.8862Y-4.3752
X4.8862Y-4.4752
X4.9862Y-4.3752
X4.9862Y-4.4752
X5.0862Y-4.3752
X5.0862Y-4.4752
X5.1862Y-4.3752
X5.1862Y-4.4752
X5.2862Y-4.3752
X5.2862Y-4.4752
X5.3862Y-4.3752
X5.3862Y-4.4752
X5.4862Y-4.3752
X5.4862Y-4.4752
X5.5862Y-4.3752
X5.5862Y-4.4752
X5.6862Y-4.3752
X5.6862Y-4.4752
X5.7862Y-4.3752
X5.7862Y-4.4752
X5.8862Y-4.3752
X5.8862Y-4.4752
X5.9862Y-4.3752
X5.9862Y-4.4752
X6.0862Y-4.3752
X6.0862Y-4.4752
X6.1862Y-4.3752
X6.1862Y-4.4752
T0
M30
