%TF.GenerationSoftware,KiCad,Pcbnew,7.0.9*%
%TF.CreationDate,2023-11-18T01:38:35+02:00*%
%TF.ProjectId,MicroBars,4d696372-6f42-4617-9273-2e6b69636164,rev?*%
%TF.SameCoordinates,Original*%
%TF.FileFunction,Soldermask,Bot*%
%TF.FilePolarity,Negative*%
%FSLAX46Y46*%
G04 Gerber Fmt 4.6, Leading zero omitted, Abs format (unit mm)*
G04 Created by KiCad (PCBNEW 7.0.9) date 2023-11-18 01:38:35*
%MOMM*%
%LPD*%
G01*
G04 APERTURE LIST*
%ADD10C,1.000000*%
%ADD11O,1.000000X1.000000*%
%ADD12C,6.200000*%
%ADD13R,1.700000X1.700000*%
%ADD14O,1.700000X1.700000*%
G04 APERTURE END LIST*
D10*
%TO.C,ALS6*%
X156653000Y-118175500D03*
D11*
X156653000Y-123175500D03*
X155403000Y-123175500D03*
X154153000Y-123175500D03*
X154153000Y-118175500D03*
X155403000Y-118175500D03*
%TD*%
D10*
%TO.C,ALS5*%
X136200000Y-125625500D03*
D11*
X136200000Y-130625500D03*
X134950000Y-130625500D03*
X133700000Y-130625500D03*
X133700000Y-125625500D03*
X134950000Y-125625500D03*
%TD*%
D10*
%TO.C,ALS4*%
X141300500Y-125625500D03*
D11*
X141300500Y-130625500D03*
X140050500Y-130625500D03*
X138800500Y-130625500D03*
X138800500Y-125625500D03*
X140050500Y-125625500D03*
%TD*%
D12*
%TO.C,*%
X162000000Y-112400000D03*
%TD*%
%TO.C,*%
X162000000Y-135400000D03*
%TD*%
D10*
%TO.C,ALS3*%
X146400500Y-125625500D03*
D11*
X146400500Y-130625500D03*
X145150500Y-130625500D03*
X143900500Y-130625500D03*
X143900500Y-125625500D03*
X145150500Y-125625500D03*
%TD*%
D10*
%TO.C,ALS1*%
X156650500Y-125625500D03*
D11*
X156650500Y-130625500D03*
X155400500Y-130625500D03*
X154150500Y-130625500D03*
X154150500Y-125625500D03*
X155400500Y-125625500D03*
%TD*%
D12*
%TO.C,*%
X103900000Y-112400000D03*
%TD*%
D10*
%TO.C,ALS9*%
X141351750Y-118175500D03*
D11*
X141351750Y-123175500D03*
X140101750Y-123175500D03*
X138851750Y-123175500D03*
X138851750Y-118175500D03*
X140101750Y-118175500D03*
%TD*%
D10*
%TO.C,ALS8*%
X146453000Y-118175500D03*
D11*
X146453000Y-123175500D03*
X145203000Y-123175500D03*
X143953000Y-123175500D03*
X143953000Y-118175500D03*
X145203000Y-118175500D03*
%TD*%
D10*
%TO.C,ALS2*%
X151550500Y-125625500D03*
D11*
X151550500Y-130625500D03*
X150300500Y-130625500D03*
X149050500Y-130625500D03*
X149050500Y-125625500D03*
X150300500Y-125625500D03*
%TD*%
D10*
%TO.C,ALS7*%
X151553000Y-118175500D03*
D11*
X151553000Y-123175500D03*
X150303000Y-123175500D03*
X149053000Y-123175500D03*
X149053000Y-118175500D03*
X150303000Y-118175500D03*
%TD*%
D12*
%TO.C,*%
X104000000Y-135400000D03*
%TD*%
D10*
%TO.C,ALS10*%
X136251750Y-118175500D03*
D11*
X136251750Y-123175500D03*
X135001750Y-123175500D03*
X133751750Y-123175500D03*
X133751750Y-118175500D03*
X135001750Y-118175500D03*
%TD*%
D13*
%TO.C,J1*%
X108870000Y-113670000D03*
D14*
X108870000Y-111130000D03*
X111410000Y-113670000D03*
X111410000Y-111130000D03*
X113950000Y-113670000D03*
X113950000Y-111130000D03*
X116490000Y-113670000D03*
X116490000Y-111130000D03*
X119030000Y-113670000D03*
X119030000Y-111130000D03*
X121570000Y-113670000D03*
X121570000Y-111130000D03*
X124110000Y-113670000D03*
X124110000Y-111130000D03*
X126650000Y-113670000D03*
X126650000Y-111130000D03*
X129190000Y-113670000D03*
X129190000Y-111130000D03*
X131730000Y-113670000D03*
X131730000Y-111130000D03*
X134270000Y-113670000D03*
X134270000Y-111130000D03*
X136810000Y-113670000D03*
X136810000Y-111130000D03*
X139350000Y-113670000D03*
X139350000Y-111130000D03*
X141890000Y-113670000D03*
X141890000Y-111130000D03*
X144430000Y-113670000D03*
X144430000Y-111130000D03*
X146970000Y-113670000D03*
X146970000Y-111130000D03*
X149510000Y-113670000D03*
X149510000Y-111130000D03*
X152050000Y-113670000D03*
X152050000Y-111130000D03*
X154590000Y-113670000D03*
X154590000Y-111130000D03*
X157130000Y-113670000D03*
X157130000Y-111130000D03*
%TD*%
M02*
