%TF.GenerationSoftware,KiCad,Pcbnew,7.0.9*%
%TF.CreationDate,2023-11-18T01:38:32+02:00*%
%TF.ProjectId,MicroBars,4d696372-6f42-4617-9273-2e6b69636164,rev?*%
%TF.SameCoordinates,Original*%
%TF.FileFunction,Drillmap*%
%TF.FilePolarity,Positive*%
%FSLAX45Y45*%
G04 Gerber Fmt 4.5, Leading zero omitted, Abs format (unit mm)*
G04 Created by KiCad (PCBNEW 7.0.9) date 2023-11-18 01:38:32*
%MOMM*%
%LPD*%
G01*
G04 APERTURE LIST*
%ADD10C,0.100000*%
%ADD11C,0.200000*%
G04 APERTURE END LIST*
D10*
X16550000Y-11190000D02*
G75*
G03*
X16250000Y-10890000I-300000J0D01*
G01*
X16250000Y-10890000D02*
X10350000Y-10890000D01*
X16250000Y-13890000D02*
G75*
G03*
X16550000Y-13590000I0J300000D01*
G01*
X16550000Y-13590000D02*
X16550000Y-11190000D01*
X10350000Y-10890000D02*
G75*
G03*
X10050000Y-11190000I0J-300000D01*
G01*
X10350000Y-13890000D02*
X16250000Y-13890000D01*
X10050000Y-13590000D02*
G75*
G03*
X10350000Y-13890000I300000J0D01*
G01*
X10050000Y-11190000D02*
X10050000Y-13590000D01*
D11*
D10*
X10160000Y-11900000D02*
X10200000Y-11940000D01*
X10200000Y-11900000D02*
X10160000Y-11940000D01*
X10160000Y-12820000D02*
X10200000Y-12860000D01*
X10200000Y-12820000D02*
X10160000Y-12860000D01*
X10360000Y-12140000D02*
X10400000Y-12180000D01*
X10400000Y-12140000D02*
X10360000Y-12180000D01*
X10720000Y-12140000D02*
X10760000Y-12180000D01*
X10760000Y-12140000D02*
X10720000Y-12180000D01*
X11119206Y-12411738D02*
X11159206Y-12451738D01*
X11159206Y-12411738D02*
X11119206Y-12451738D01*
X11128770Y-12511230D02*
X11168770Y-12551230D01*
X11168770Y-12511230D02*
X11128770Y-12551230D01*
X11720000Y-12320000D02*
X11760000Y-12360000D01*
X11760000Y-12320000D02*
X11720000Y-12360000D01*
X11740000Y-12760000D02*
X11780000Y-12800000D01*
X11780000Y-12760000D02*
X11740000Y-12800000D01*
X11860000Y-12900000D02*
X11900000Y-12940000D01*
X11900000Y-12900000D02*
X11860000Y-12940000D01*
X11880000Y-12300000D02*
X11920000Y-12340000D01*
X11920000Y-12300000D02*
X11880000Y-12340000D01*
X11920000Y-12428900D02*
X11960000Y-12468900D01*
X11960000Y-12428900D02*
X11920000Y-12468900D01*
X11920000Y-12528850D02*
X11960000Y-12568850D01*
X11960000Y-12528850D02*
X11920000Y-12568850D01*
X11940000Y-11960000D02*
X11980000Y-12000000D01*
X11980000Y-11960000D02*
X11940000Y-12000000D01*
X11960000Y-12200000D02*
X12000000Y-12240000D01*
X12000000Y-12200000D02*
X11960000Y-12240000D01*
X12000000Y-12620000D02*
X12040000Y-12660000D01*
X12040000Y-12620000D02*
X12000000Y-12660000D01*
X12020000Y-11880000D02*
X12060000Y-11920000D01*
X12060000Y-11880000D02*
X12020000Y-11920000D01*
X12100000Y-11820000D02*
X12140000Y-11860000D01*
X12140000Y-11820000D02*
X12100000Y-11860000D01*
X12101300Y-12643750D02*
X12141300Y-12683750D01*
X12141300Y-12643750D02*
X12101300Y-12683750D01*
X12220000Y-12720000D02*
X12260000Y-12760000D01*
X12260000Y-12720000D02*
X12220000Y-12760000D01*
X12220000Y-13020000D02*
X12260000Y-13060000D01*
X12260000Y-13020000D02*
X12220000Y-13060000D01*
X12311300Y-12851300D02*
X12351300Y-12891300D01*
X12351300Y-12851300D02*
X12311300Y-12891300D01*
X12360000Y-12960000D02*
X12400000Y-13000000D01*
X12400000Y-12960000D02*
X12360000Y-13000000D01*
X12480000Y-12500000D02*
X12520000Y-12540000D01*
X12520000Y-12500000D02*
X12480000Y-12540000D01*
X12481300Y-12911300D02*
X12521300Y-12951300D01*
X12521300Y-12911300D02*
X12481300Y-12951300D01*
X12549133Y-12103728D02*
X12589133Y-12143728D01*
X12589133Y-12103728D02*
X12549133Y-12143728D01*
X12560000Y-12500000D02*
X12600000Y-12540000D01*
X12600000Y-12500000D02*
X12560000Y-12540000D01*
X12578266Y-12935541D02*
X12618266Y-12975541D01*
X12618266Y-12935541D02*
X12578266Y-12975541D01*
X12640000Y-12500000D02*
X12680000Y-12540000D01*
X12680000Y-12500000D02*
X12640000Y-12540000D01*
X12670668Y-12897437D02*
X12710668Y-12937437D01*
X12710668Y-12897437D02*
X12670668Y-12937437D01*
X12752010Y-12177450D02*
X12792010Y-12217450D01*
X12792010Y-12177450D02*
X12752010Y-12217450D01*
X12760000Y-11600000D02*
X12800000Y-11640000D01*
X12800000Y-11600000D02*
X12760000Y-11640000D01*
X12805282Y-12865282D02*
X12845282Y-12905282D01*
X12845282Y-12865282D02*
X12805282Y-12905282D01*
X12860000Y-11600000D02*
X12900000Y-11640000D01*
X12900000Y-11600000D02*
X12860000Y-11640000D01*
X12900000Y-12220000D02*
X12940000Y-12260000D01*
X12940000Y-12220000D02*
X12900000Y-12260000D01*
X12980000Y-11600000D02*
X13020000Y-11640000D01*
X13020000Y-11600000D02*
X12980000Y-11640000D01*
X13080000Y-11600000D02*
X13120000Y-11640000D01*
X13120000Y-11600000D02*
X13080000Y-11640000D01*
X13120000Y-12300000D02*
X13160000Y-12340000D01*
X13160000Y-12300000D02*
X13120000Y-12340000D01*
X13220000Y-11600000D02*
X13260000Y-11640000D01*
X13260000Y-11600000D02*
X13220000Y-11640000D01*
X13421300Y-12087500D02*
X13461300Y-12127500D01*
X13461300Y-12087500D02*
X13421300Y-12127500D01*
X13601300Y-12142600D02*
X13641300Y-12182600D01*
X13641300Y-12142600D02*
X13601300Y-12182600D01*
X13400000Y-12562550D02*
G75*
G03*
X13400000Y-12562550I-30000J0D01*
G01*
X13400000Y-13062550D02*
G75*
G03*
X13400000Y-13062550I-30000J0D01*
G01*
X13405175Y-11817550D02*
G75*
G03*
X13405175Y-11817550I-30000J0D01*
G01*
X13405175Y-12317550D02*
G75*
G03*
X13405175Y-12317550I-30000J0D01*
G01*
X13525000Y-12562550D02*
G75*
G03*
X13525000Y-12562550I-30000J0D01*
G01*
X13525000Y-13062550D02*
G75*
G03*
X13525000Y-13062550I-30000J0D01*
G01*
X13530175Y-11817550D02*
G75*
G03*
X13530175Y-11817550I-30000J0D01*
G01*
X13530175Y-12317550D02*
G75*
G03*
X13530175Y-12317550I-30000J0D01*
G01*
X13650000Y-12562550D02*
G75*
G03*
X13650000Y-12562550I-30000J0D01*
G01*
X13650000Y-13062550D02*
G75*
G03*
X13650000Y-13062550I-30000J0D01*
G01*
X13655175Y-11817550D02*
G75*
G03*
X13655175Y-11817550I-30000J0D01*
G01*
X13655175Y-12317550D02*
G75*
G03*
X13655175Y-12317550I-30000J0D01*
G01*
X13910050Y-12562550D02*
G75*
G03*
X13910050Y-12562550I-30000J0D01*
G01*
X13910050Y-13062550D02*
G75*
G03*
X13910050Y-13062550I-30000J0D01*
G01*
X13915175Y-11817550D02*
G75*
G03*
X13915175Y-11817550I-30000J0D01*
G01*
X13915175Y-12317550D02*
G75*
G03*
X13915175Y-12317550I-30000J0D01*
G01*
X14035050Y-12562550D02*
G75*
G03*
X14035050Y-12562550I-30000J0D01*
G01*
X14035050Y-13062550D02*
G75*
G03*
X14035050Y-13062550I-30000J0D01*
G01*
X14040175Y-11817550D02*
G75*
G03*
X14040175Y-11817550I-30000J0D01*
G01*
X14040175Y-12317550D02*
G75*
G03*
X14040175Y-12317550I-30000J0D01*
G01*
X14160050Y-12562550D02*
G75*
G03*
X14160050Y-12562550I-30000J0D01*
G01*
X14160050Y-13062550D02*
G75*
G03*
X14160050Y-13062550I-30000J0D01*
G01*
X14165175Y-11817550D02*
G75*
G03*
X14165175Y-11817550I-30000J0D01*
G01*
X14165175Y-12317550D02*
G75*
G03*
X14165175Y-12317550I-30000J0D01*
G01*
X14420050Y-12562550D02*
G75*
G03*
X14420050Y-12562550I-30000J0D01*
G01*
X14420050Y-13062550D02*
G75*
G03*
X14420050Y-13062550I-30000J0D01*
G01*
X14425300Y-11817550D02*
G75*
G03*
X14425300Y-11817550I-30000J0D01*
G01*
X14425300Y-12317550D02*
G75*
G03*
X14425300Y-12317550I-30000J0D01*
G01*
X14545050Y-12562550D02*
G75*
G03*
X14545050Y-12562550I-30000J0D01*
G01*
X14545050Y-13062550D02*
G75*
G03*
X14545050Y-13062550I-30000J0D01*
G01*
X14550300Y-11817550D02*
G75*
G03*
X14550300Y-11817550I-30000J0D01*
G01*
X14550300Y-12317550D02*
G75*
G03*
X14550300Y-12317550I-30000J0D01*
G01*
X14670050Y-12562550D02*
G75*
G03*
X14670050Y-12562550I-30000J0D01*
G01*
X14670050Y-13062550D02*
G75*
G03*
X14670050Y-13062550I-30000J0D01*
G01*
X14675300Y-11817550D02*
G75*
G03*
X14675300Y-11817550I-30000J0D01*
G01*
X14675300Y-12317550D02*
G75*
G03*
X14675300Y-12317550I-30000J0D01*
G01*
X14935050Y-12562550D02*
G75*
G03*
X14935050Y-12562550I-30000J0D01*
G01*
X14935050Y-13062550D02*
G75*
G03*
X14935050Y-13062550I-30000J0D01*
G01*
X14935300Y-11817550D02*
G75*
G03*
X14935300Y-11817550I-30000J0D01*
G01*
X14935300Y-12317550D02*
G75*
G03*
X14935300Y-12317550I-30000J0D01*
G01*
X15060050Y-12562550D02*
G75*
G03*
X15060050Y-12562550I-30000J0D01*
G01*
X15060050Y-13062550D02*
G75*
G03*
X15060050Y-13062550I-30000J0D01*
G01*
X15060300Y-11817550D02*
G75*
G03*
X15060300Y-11817550I-30000J0D01*
G01*
X15060300Y-12317550D02*
G75*
G03*
X15060300Y-12317550I-30000J0D01*
G01*
X15185050Y-12562550D02*
G75*
G03*
X15185050Y-12562550I-30000J0D01*
G01*
X15185050Y-13062550D02*
G75*
G03*
X15185050Y-13062550I-30000J0D01*
G01*
X15185300Y-11817550D02*
G75*
G03*
X15185300Y-11817550I-30000J0D01*
G01*
X15185300Y-12317550D02*
G75*
G03*
X15185300Y-12317550I-30000J0D01*
G01*
X15445050Y-12562550D02*
G75*
G03*
X15445050Y-12562550I-30000J0D01*
G01*
X15445050Y-13062550D02*
G75*
G03*
X15445050Y-13062550I-30000J0D01*
G01*
X15445300Y-11817550D02*
G75*
G03*
X15445300Y-11817550I-30000J0D01*
G01*
X15445300Y-12317550D02*
G75*
G03*
X15445300Y-12317550I-30000J0D01*
G01*
X15570050Y-12562550D02*
G75*
G03*
X15570050Y-12562550I-30000J0D01*
G01*
X15570050Y-13062550D02*
G75*
G03*
X15570050Y-13062550I-30000J0D01*
G01*
X15570300Y-11817550D02*
G75*
G03*
X15570300Y-11817550I-30000J0D01*
G01*
X15570300Y-12317550D02*
G75*
G03*
X15570300Y-12317550I-30000J0D01*
G01*
X15695050Y-12562550D02*
G75*
G03*
X15695050Y-12562550I-30000J0D01*
G01*
X15695050Y-13062550D02*
G75*
G03*
X15695050Y-13062550I-30000J0D01*
G01*
X15695300Y-11817550D02*
G75*
G03*
X15695300Y-11817550I-30000J0D01*
G01*
X15695300Y-12317550D02*
G75*
G03*
X15695300Y-12317550I-30000J0D01*
G01*
X10887000Y-11063000D02*
X10887000Y-11163000D01*
X10837000Y-11113000D02*
X10937000Y-11113000D01*
X10887000Y-11317000D02*
X10887000Y-11417000D01*
X10837000Y-11367000D02*
X10937000Y-11367000D01*
X11141000Y-11063000D02*
X11141000Y-11163000D01*
X11091000Y-11113000D02*
X11191000Y-11113000D01*
X11141000Y-11317000D02*
X11141000Y-11417000D01*
X11091000Y-11367000D02*
X11191000Y-11367000D01*
X11395000Y-11063000D02*
X11395000Y-11163000D01*
X11345000Y-11113000D02*
X11445000Y-11113000D01*
X11395000Y-11317000D02*
X11395000Y-11417000D01*
X11345000Y-11367000D02*
X11445000Y-11367000D01*
X11649000Y-11063000D02*
X11649000Y-11163000D01*
X11599000Y-11113000D02*
X11699000Y-11113000D01*
X11649000Y-11317000D02*
X11649000Y-11417000D01*
X11599000Y-11367000D02*
X11699000Y-11367000D01*
X11903000Y-11063000D02*
X11903000Y-11163000D01*
X11853000Y-11113000D02*
X11953000Y-11113000D01*
X11903000Y-11317000D02*
X11903000Y-11417000D01*
X11853000Y-11367000D02*
X11953000Y-11367000D01*
X12157000Y-11063000D02*
X12157000Y-11163000D01*
X12107000Y-11113000D02*
X12207000Y-11113000D01*
X12157000Y-11317000D02*
X12157000Y-11417000D01*
X12107000Y-11367000D02*
X12207000Y-11367000D01*
X12411000Y-11063000D02*
X12411000Y-11163000D01*
X12361000Y-11113000D02*
X12461000Y-11113000D01*
X12411000Y-11317000D02*
X12411000Y-11417000D01*
X12361000Y-11367000D02*
X12461000Y-11367000D01*
X12665000Y-11063000D02*
X12665000Y-11163000D01*
X12615000Y-11113000D02*
X12715000Y-11113000D01*
X12665000Y-11317000D02*
X12665000Y-11417000D01*
X12615000Y-11367000D02*
X12715000Y-11367000D01*
X12919000Y-11063000D02*
X12919000Y-11163000D01*
X12869000Y-11113000D02*
X12969000Y-11113000D01*
X12919000Y-11317000D02*
X12919000Y-11417000D01*
X12869000Y-11367000D02*
X12969000Y-11367000D01*
X13173000Y-11063000D02*
X13173000Y-11163000D01*
X13123000Y-11113000D02*
X13223000Y-11113000D01*
X13173000Y-11317000D02*
X13173000Y-11417000D01*
X13123000Y-11367000D02*
X13223000Y-11367000D01*
X13427000Y-11063000D02*
X13427000Y-11163000D01*
X13377000Y-11113000D02*
X13477000Y-11113000D01*
X13427000Y-11317000D02*
X13427000Y-11417000D01*
X13377000Y-11367000D02*
X13477000Y-11367000D01*
X13681000Y-11063000D02*
X13681000Y-11163000D01*
X13631000Y-11113000D02*
X13731000Y-11113000D01*
X13681000Y-11317000D02*
X13681000Y-11417000D01*
X13631000Y-11367000D02*
X13731000Y-11367000D01*
X13935000Y-11063000D02*
X13935000Y-11163000D01*
X13885000Y-11113000D02*
X13985000Y-11113000D01*
X13935000Y-11317000D02*
X13935000Y-11417000D01*
X13885000Y-11367000D02*
X13985000Y-11367000D01*
X14189000Y-11063000D02*
X14189000Y-11163000D01*
X14139000Y-11113000D02*
X14239000Y-11113000D01*
X14189000Y-11317000D02*
X14189000Y-11417000D01*
X14139000Y-11367000D02*
X14239000Y-11367000D01*
X14443000Y-11063000D02*
X14443000Y-11163000D01*
X14393000Y-11113000D02*
X14493000Y-11113000D01*
X14443000Y-11317000D02*
X14443000Y-11417000D01*
X14393000Y-11367000D02*
X14493000Y-11367000D01*
X14697000Y-11063000D02*
X14697000Y-11163000D01*
X14647000Y-11113000D02*
X14747000Y-11113000D01*
X14697000Y-11317000D02*
X14697000Y-11417000D01*
X14647000Y-11367000D02*
X14747000Y-11367000D01*
X14951000Y-11063000D02*
X14951000Y-11163000D01*
X14901000Y-11113000D02*
X15001000Y-11113000D01*
X14951000Y-11317000D02*
X14951000Y-11417000D01*
X14901000Y-11367000D02*
X15001000Y-11367000D01*
X15205000Y-11063000D02*
X15205000Y-11163000D01*
X15155000Y-11113000D02*
X15255000Y-11113000D01*
X15205000Y-11317000D02*
X15205000Y-11417000D01*
X15155000Y-11367000D02*
X15255000Y-11367000D01*
X15459000Y-11063000D02*
X15459000Y-11163000D01*
X15409000Y-11113000D02*
X15509000Y-11113000D01*
X15459000Y-11317000D02*
X15459000Y-11417000D01*
X15409000Y-11367000D02*
X15509000Y-11367000D01*
X15713000Y-11063000D02*
X15713000Y-11163000D01*
X15663000Y-11113000D02*
X15763000Y-11113000D01*
X15713000Y-11317000D02*
X15713000Y-11417000D01*
X15663000Y-11367000D02*
X15763000Y-11367000D01*
D11*
X10305777Y-14206484D02*
X10305777Y-14006484D01*
X10305777Y-14006484D02*
X10353396Y-14006484D01*
X10353396Y-14006484D02*
X10381967Y-14016008D01*
X10381967Y-14016008D02*
X10401015Y-14035055D01*
X10401015Y-14035055D02*
X10410539Y-14054103D01*
X10410539Y-14054103D02*
X10420063Y-14092198D01*
X10420063Y-14092198D02*
X10420063Y-14120769D01*
X10420063Y-14120769D02*
X10410539Y-14158865D01*
X10410539Y-14158865D02*
X10401015Y-14177912D01*
X10401015Y-14177912D02*
X10381967Y-14196960D01*
X10381967Y-14196960D02*
X10353396Y-14206484D01*
X10353396Y-14206484D02*
X10305777Y-14206484D01*
X10505777Y-14206484D02*
X10505777Y-14073150D01*
X10505777Y-14111246D02*
X10515301Y-14092198D01*
X10515301Y-14092198D02*
X10524824Y-14082674D01*
X10524824Y-14082674D02*
X10543872Y-14073150D01*
X10543872Y-14073150D02*
X10562920Y-14073150D01*
X10629586Y-14206484D02*
X10629586Y-14073150D01*
X10629586Y-14006484D02*
X10620063Y-14016008D01*
X10620063Y-14016008D02*
X10629586Y-14025531D01*
X10629586Y-14025531D02*
X10639110Y-14016008D01*
X10639110Y-14016008D02*
X10629586Y-14006484D01*
X10629586Y-14006484D02*
X10629586Y-14025531D01*
X10753396Y-14206484D02*
X10734348Y-14196960D01*
X10734348Y-14196960D02*
X10724824Y-14177912D01*
X10724824Y-14177912D02*
X10724824Y-14006484D01*
X10858158Y-14206484D02*
X10839110Y-14196960D01*
X10839110Y-14196960D02*
X10829586Y-14177912D01*
X10829586Y-14177912D02*
X10829586Y-14006484D01*
X11086729Y-14206484D02*
X11086729Y-14006484D01*
X11086729Y-14006484D02*
X11153396Y-14149341D01*
X11153396Y-14149341D02*
X11220062Y-14006484D01*
X11220062Y-14006484D02*
X11220062Y-14206484D01*
X11401015Y-14206484D02*
X11401015Y-14101722D01*
X11401015Y-14101722D02*
X11391491Y-14082674D01*
X11391491Y-14082674D02*
X11372443Y-14073150D01*
X11372443Y-14073150D02*
X11334348Y-14073150D01*
X11334348Y-14073150D02*
X11315301Y-14082674D01*
X11401015Y-14196960D02*
X11381967Y-14206484D01*
X11381967Y-14206484D02*
X11334348Y-14206484D01*
X11334348Y-14206484D02*
X11315301Y-14196960D01*
X11315301Y-14196960D02*
X11305777Y-14177912D01*
X11305777Y-14177912D02*
X11305777Y-14158865D01*
X11305777Y-14158865D02*
X11315301Y-14139817D01*
X11315301Y-14139817D02*
X11334348Y-14130293D01*
X11334348Y-14130293D02*
X11381967Y-14130293D01*
X11381967Y-14130293D02*
X11401015Y-14120769D01*
X11496253Y-14073150D02*
X11496253Y-14273150D01*
X11496253Y-14082674D02*
X11515301Y-14073150D01*
X11515301Y-14073150D02*
X11553396Y-14073150D01*
X11553396Y-14073150D02*
X11572443Y-14082674D01*
X11572443Y-14082674D02*
X11581967Y-14092198D01*
X11581967Y-14092198D02*
X11591491Y-14111246D01*
X11591491Y-14111246D02*
X11591491Y-14168388D01*
X11591491Y-14168388D02*
X11581967Y-14187436D01*
X11581967Y-14187436D02*
X11572443Y-14196960D01*
X11572443Y-14196960D02*
X11553396Y-14206484D01*
X11553396Y-14206484D02*
X11515301Y-14206484D01*
X11515301Y-14206484D02*
X11496253Y-14196960D01*
X11677205Y-14187436D02*
X11686729Y-14196960D01*
X11686729Y-14196960D02*
X11677205Y-14206484D01*
X11677205Y-14206484D02*
X11667682Y-14196960D01*
X11667682Y-14196960D02*
X11677205Y-14187436D01*
X11677205Y-14187436D02*
X11677205Y-14206484D01*
X11677205Y-14082674D02*
X11686729Y-14092198D01*
X11686729Y-14092198D02*
X11677205Y-14101722D01*
X11677205Y-14101722D02*
X11667682Y-14092198D01*
X11667682Y-14092198D02*
X11677205Y-14082674D01*
X11677205Y-14082674D02*
X11677205Y-14101722D01*
D10*
X10005000Y-14515000D02*
X10045000Y-14555000D01*
X10045000Y-14515000D02*
X10005000Y-14555000D01*
D11*
X10343872Y-14426484D02*
X10362920Y-14426484D01*
X10362920Y-14426484D02*
X10381967Y-14436008D01*
X10381967Y-14436008D02*
X10391491Y-14445531D01*
X10391491Y-14445531D02*
X10401015Y-14464579D01*
X10401015Y-14464579D02*
X10410539Y-14502674D01*
X10410539Y-14502674D02*
X10410539Y-14550293D01*
X10410539Y-14550293D02*
X10401015Y-14588388D01*
X10401015Y-14588388D02*
X10391491Y-14607436D01*
X10391491Y-14607436D02*
X10381967Y-14616960D01*
X10381967Y-14616960D02*
X10362920Y-14626484D01*
X10362920Y-14626484D02*
X10343872Y-14626484D01*
X10343872Y-14626484D02*
X10324824Y-14616960D01*
X10324824Y-14616960D02*
X10315301Y-14607436D01*
X10315301Y-14607436D02*
X10305777Y-14588388D01*
X10305777Y-14588388D02*
X10296253Y-14550293D01*
X10296253Y-14550293D02*
X10296253Y-14502674D01*
X10296253Y-14502674D02*
X10305777Y-14464579D01*
X10305777Y-14464579D02*
X10315301Y-14445531D01*
X10315301Y-14445531D02*
X10324824Y-14436008D01*
X10324824Y-14436008D02*
X10343872Y-14426484D01*
X10496253Y-14607436D02*
X10505777Y-14616960D01*
X10505777Y-14616960D02*
X10496253Y-14626484D01*
X10496253Y-14626484D02*
X10486729Y-14616960D01*
X10486729Y-14616960D02*
X10496253Y-14607436D01*
X10496253Y-14607436D02*
X10496253Y-14626484D01*
X10677205Y-14493150D02*
X10677205Y-14626484D01*
X10629586Y-14416960D02*
X10581967Y-14559817D01*
X10581967Y-14559817D02*
X10705777Y-14559817D01*
X10820063Y-14426484D02*
X10839110Y-14426484D01*
X10839110Y-14426484D02*
X10858158Y-14436008D01*
X10858158Y-14436008D02*
X10867682Y-14445531D01*
X10867682Y-14445531D02*
X10877205Y-14464579D01*
X10877205Y-14464579D02*
X10886729Y-14502674D01*
X10886729Y-14502674D02*
X10886729Y-14550293D01*
X10886729Y-14550293D02*
X10877205Y-14588388D01*
X10877205Y-14588388D02*
X10867682Y-14607436D01*
X10867682Y-14607436D02*
X10858158Y-14616960D01*
X10858158Y-14616960D02*
X10839110Y-14626484D01*
X10839110Y-14626484D02*
X10820063Y-14626484D01*
X10820063Y-14626484D02*
X10801015Y-14616960D01*
X10801015Y-14616960D02*
X10791491Y-14607436D01*
X10791491Y-14607436D02*
X10781967Y-14588388D01*
X10781967Y-14588388D02*
X10772444Y-14550293D01*
X10772444Y-14550293D02*
X10772444Y-14502674D01*
X10772444Y-14502674D02*
X10781967Y-14464579D01*
X10781967Y-14464579D02*
X10791491Y-14445531D01*
X10791491Y-14445531D02*
X10801015Y-14436008D01*
X10801015Y-14436008D02*
X10820063Y-14426484D01*
X11010539Y-14426484D02*
X11029586Y-14426484D01*
X11029586Y-14426484D02*
X11048634Y-14436008D01*
X11048634Y-14436008D02*
X11058158Y-14445531D01*
X11058158Y-14445531D02*
X11067682Y-14464579D01*
X11067682Y-14464579D02*
X11077205Y-14502674D01*
X11077205Y-14502674D02*
X11077205Y-14550293D01*
X11077205Y-14550293D02*
X11067682Y-14588388D01*
X11067682Y-14588388D02*
X11058158Y-14607436D01*
X11058158Y-14607436D02*
X11048634Y-14616960D01*
X11048634Y-14616960D02*
X11029586Y-14626484D01*
X11029586Y-14626484D02*
X11010539Y-14626484D01*
X11010539Y-14626484D02*
X10991491Y-14616960D01*
X10991491Y-14616960D02*
X10981967Y-14607436D01*
X10981967Y-14607436D02*
X10972444Y-14588388D01*
X10972444Y-14588388D02*
X10962920Y-14550293D01*
X10962920Y-14550293D02*
X10962920Y-14502674D01*
X10962920Y-14502674D02*
X10972444Y-14464579D01*
X10972444Y-14464579D02*
X10981967Y-14445531D01*
X10981967Y-14445531D02*
X10991491Y-14436008D01*
X10991491Y-14436008D02*
X11010539Y-14426484D01*
X11162920Y-14626484D02*
X11162920Y-14493150D01*
X11162920Y-14512198D02*
X11172444Y-14502674D01*
X11172444Y-14502674D02*
X11191491Y-14493150D01*
X11191491Y-14493150D02*
X11220063Y-14493150D01*
X11220063Y-14493150D02*
X11239110Y-14502674D01*
X11239110Y-14502674D02*
X11248634Y-14521722D01*
X11248634Y-14521722D02*
X11248634Y-14626484D01*
X11248634Y-14521722D02*
X11258158Y-14502674D01*
X11258158Y-14502674D02*
X11277205Y-14493150D01*
X11277205Y-14493150D02*
X11305777Y-14493150D01*
X11305777Y-14493150D02*
X11324824Y-14502674D01*
X11324824Y-14502674D02*
X11334348Y-14521722D01*
X11334348Y-14521722D02*
X11334348Y-14626484D01*
X11429586Y-14626484D02*
X11429586Y-14493150D01*
X11429586Y-14512198D02*
X11439110Y-14502674D01*
X11439110Y-14502674D02*
X11458158Y-14493150D01*
X11458158Y-14493150D02*
X11486729Y-14493150D01*
X11486729Y-14493150D02*
X11505777Y-14502674D01*
X11505777Y-14502674D02*
X11515301Y-14521722D01*
X11515301Y-14521722D02*
X11515301Y-14626484D01*
X11515301Y-14521722D02*
X11524824Y-14502674D01*
X11524824Y-14502674D02*
X11543872Y-14493150D01*
X11543872Y-14493150D02*
X11572443Y-14493150D01*
X11572443Y-14493150D02*
X11591491Y-14502674D01*
X11591491Y-14502674D02*
X11601015Y-14521722D01*
X11601015Y-14521722D02*
X11601015Y-14626484D01*
X11991491Y-14416960D02*
X11820063Y-14674103D01*
X12248634Y-14426484D02*
X12267682Y-14426484D01*
X12267682Y-14426484D02*
X12286729Y-14436008D01*
X12286729Y-14436008D02*
X12296253Y-14445531D01*
X12296253Y-14445531D02*
X12305777Y-14464579D01*
X12305777Y-14464579D02*
X12315301Y-14502674D01*
X12315301Y-14502674D02*
X12315301Y-14550293D01*
X12315301Y-14550293D02*
X12305777Y-14588388D01*
X12305777Y-14588388D02*
X12296253Y-14607436D01*
X12296253Y-14607436D02*
X12286729Y-14616960D01*
X12286729Y-14616960D02*
X12267682Y-14626484D01*
X12267682Y-14626484D02*
X12248634Y-14626484D01*
X12248634Y-14626484D02*
X12229586Y-14616960D01*
X12229586Y-14616960D02*
X12220063Y-14607436D01*
X12220063Y-14607436D02*
X12210539Y-14588388D01*
X12210539Y-14588388D02*
X12201015Y-14550293D01*
X12201015Y-14550293D02*
X12201015Y-14502674D01*
X12201015Y-14502674D02*
X12210539Y-14464579D01*
X12210539Y-14464579D02*
X12220063Y-14445531D01*
X12220063Y-14445531D02*
X12229586Y-14436008D01*
X12229586Y-14436008D02*
X12248634Y-14426484D01*
X12401015Y-14607436D02*
X12410539Y-14616960D01*
X12410539Y-14616960D02*
X12401015Y-14626484D01*
X12401015Y-14626484D02*
X12391491Y-14616960D01*
X12391491Y-14616960D02*
X12401015Y-14607436D01*
X12401015Y-14607436D02*
X12401015Y-14626484D01*
X12534348Y-14426484D02*
X12553396Y-14426484D01*
X12553396Y-14426484D02*
X12572444Y-14436008D01*
X12572444Y-14436008D02*
X12581967Y-14445531D01*
X12581967Y-14445531D02*
X12591491Y-14464579D01*
X12591491Y-14464579D02*
X12601015Y-14502674D01*
X12601015Y-14502674D02*
X12601015Y-14550293D01*
X12601015Y-14550293D02*
X12591491Y-14588388D01*
X12591491Y-14588388D02*
X12581967Y-14607436D01*
X12581967Y-14607436D02*
X12572444Y-14616960D01*
X12572444Y-14616960D02*
X12553396Y-14626484D01*
X12553396Y-14626484D02*
X12534348Y-14626484D01*
X12534348Y-14626484D02*
X12515301Y-14616960D01*
X12515301Y-14616960D02*
X12505777Y-14607436D01*
X12505777Y-14607436D02*
X12496253Y-14588388D01*
X12496253Y-14588388D02*
X12486729Y-14550293D01*
X12486729Y-14550293D02*
X12486729Y-14502674D01*
X12486729Y-14502674D02*
X12496253Y-14464579D01*
X12496253Y-14464579D02*
X12505777Y-14445531D01*
X12505777Y-14445531D02*
X12515301Y-14436008D01*
X12515301Y-14436008D02*
X12534348Y-14426484D01*
X12791491Y-14626484D02*
X12677206Y-14626484D01*
X12734348Y-14626484D02*
X12734348Y-14426484D01*
X12734348Y-14426484D02*
X12715301Y-14455055D01*
X12715301Y-14455055D02*
X12696253Y-14474103D01*
X12696253Y-14474103D02*
X12677206Y-14483627D01*
X12972444Y-14426484D02*
X12877206Y-14426484D01*
X12877206Y-14426484D02*
X12867682Y-14521722D01*
X12867682Y-14521722D02*
X12877206Y-14512198D01*
X12877206Y-14512198D02*
X12896253Y-14502674D01*
X12896253Y-14502674D02*
X12943872Y-14502674D01*
X12943872Y-14502674D02*
X12962920Y-14512198D01*
X12962920Y-14512198D02*
X12972444Y-14521722D01*
X12972444Y-14521722D02*
X12981967Y-14540769D01*
X12981967Y-14540769D02*
X12981967Y-14588388D01*
X12981967Y-14588388D02*
X12972444Y-14607436D01*
X12972444Y-14607436D02*
X12962920Y-14616960D01*
X12962920Y-14616960D02*
X12943872Y-14626484D01*
X12943872Y-14626484D02*
X12896253Y-14626484D01*
X12896253Y-14626484D02*
X12877206Y-14616960D01*
X12877206Y-14616960D02*
X12867682Y-14607436D01*
X13048634Y-14426484D02*
X13181967Y-14426484D01*
X13181967Y-14426484D02*
X13096253Y-14626484D01*
X13248634Y-14426484D02*
X13248634Y-14464579D01*
X13324825Y-14426484D02*
X13324825Y-14464579D01*
X13620063Y-14702674D02*
X13610539Y-14693150D01*
X13610539Y-14693150D02*
X13591491Y-14664579D01*
X13591491Y-14664579D02*
X13581968Y-14645531D01*
X13581968Y-14645531D02*
X13572444Y-14616960D01*
X13572444Y-14616960D02*
X13562920Y-14569341D01*
X13562920Y-14569341D02*
X13562920Y-14531246D01*
X13562920Y-14531246D02*
X13572444Y-14483627D01*
X13572444Y-14483627D02*
X13581968Y-14455055D01*
X13581968Y-14455055D02*
X13591491Y-14436008D01*
X13591491Y-14436008D02*
X13610539Y-14407436D01*
X13610539Y-14407436D02*
X13620063Y-14397912D01*
X13781968Y-14493150D02*
X13781968Y-14626484D01*
X13734348Y-14416960D02*
X13686729Y-14559817D01*
X13686729Y-14559817D02*
X13810539Y-14559817D01*
X13924825Y-14426484D02*
X13943872Y-14426484D01*
X13943872Y-14426484D02*
X13962920Y-14436008D01*
X13962920Y-14436008D02*
X13972444Y-14445531D01*
X13972444Y-14445531D02*
X13981968Y-14464579D01*
X13981968Y-14464579D02*
X13991491Y-14502674D01*
X13991491Y-14502674D02*
X13991491Y-14550293D01*
X13991491Y-14550293D02*
X13981968Y-14588388D01*
X13981968Y-14588388D02*
X13972444Y-14607436D01*
X13972444Y-14607436D02*
X13962920Y-14616960D01*
X13962920Y-14616960D02*
X13943872Y-14626484D01*
X13943872Y-14626484D02*
X13924825Y-14626484D01*
X13924825Y-14626484D02*
X13905777Y-14616960D01*
X13905777Y-14616960D02*
X13896253Y-14607436D01*
X13896253Y-14607436D02*
X13886729Y-14588388D01*
X13886729Y-14588388D02*
X13877206Y-14550293D01*
X13877206Y-14550293D02*
X13877206Y-14502674D01*
X13877206Y-14502674D02*
X13886729Y-14464579D01*
X13886729Y-14464579D02*
X13896253Y-14445531D01*
X13896253Y-14445531D02*
X13905777Y-14436008D01*
X13905777Y-14436008D02*
X13924825Y-14426484D01*
X14229587Y-14626484D02*
X14229587Y-14426484D01*
X14315301Y-14626484D02*
X14315301Y-14521722D01*
X14315301Y-14521722D02*
X14305777Y-14502674D01*
X14305777Y-14502674D02*
X14286730Y-14493150D01*
X14286730Y-14493150D02*
X14258158Y-14493150D01*
X14258158Y-14493150D02*
X14239110Y-14502674D01*
X14239110Y-14502674D02*
X14229587Y-14512198D01*
X14439110Y-14626484D02*
X14420063Y-14616960D01*
X14420063Y-14616960D02*
X14410539Y-14607436D01*
X14410539Y-14607436D02*
X14401015Y-14588388D01*
X14401015Y-14588388D02*
X14401015Y-14531246D01*
X14401015Y-14531246D02*
X14410539Y-14512198D01*
X14410539Y-14512198D02*
X14420063Y-14502674D01*
X14420063Y-14502674D02*
X14439110Y-14493150D01*
X14439110Y-14493150D02*
X14467682Y-14493150D01*
X14467682Y-14493150D02*
X14486730Y-14502674D01*
X14486730Y-14502674D02*
X14496253Y-14512198D01*
X14496253Y-14512198D02*
X14505777Y-14531246D01*
X14505777Y-14531246D02*
X14505777Y-14588388D01*
X14505777Y-14588388D02*
X14496253Y-14607436D01*
X14496253Y-14607436D02*
X14486730Y-14616960D01*
X14486730Y-14616960D02*
X14467682Y-14626484D01*
X14467682Y-14626484D02*
X14439110Y-14626484D01*
X14620063Y-14626484D02*
X14601015Y-14616960D01*
X14601015Y-14616960D02*
X14591491Y-14597912D01*
X14591491Y-14597912D02*
X14591491Y-14426484D01*
X14772444Y-14616960D02*
X14753396Y-14626484D01*
X14753396Y-14626484D02*
X14715301Y-14626484D01*
X14715301Y-14626484D02*
X14696253Y-14616960D01*
X14696253Y-14616960D02*
X14686730Y-14597912D01*
X14686730Y-14597912D02*
X14686730Y-14521722D01*
X14686730Y-14521722D02*
X14696253Y-14502674D01*
X14696253Y-14502674D02*
X14715301Y-14493150D01*
X14715301Y-14493150D02*
X14753396Y-14493150D01*
X14753396Y-14493150D02*
X14772444Y-14502674D01*
X14772444Y-14502674D02*
X14781968Y-14521722D01*
X14781968Y-14521722D02*
X14781968Y-14540769D01*
X14781968Y-14540769D02*
X14686730Y-14559817D01*
X14858158Y-14616960D02*
X14877206Y-14626484D01*
X14877206Y-14626484D02*
X14915301Y-14626484D01*
X14915301Y-14626484D02*
X14934349Y-14616960D01*
X14934349Y-14616960D02*
X14943872Y-14597912D01*
X14943872Y-14597912D02*
X14943872Y-14588388D01*
X14943872Y-14588388D02*
X14934349Y-14569341D01*
X14934349Y-14569341D02*
X14915301Y-14559817D01*
X14915301Y-14559817D02*
X14886730Y-14559817D01*
X14886730Y-14559817D02*
X14867682Y-14550293D01*
X14867682Y-14550293D02*
X14858158Y-14531246D01*
X14858158Y-14531246D02*
X14858158Y-14521722D01*
X14858158Y-14521722D02*
X14867682Y-14502674D01*
X14867682Y-14502674D02*
X14886730Y-14493150D01*
X14886730Y-14493150D02*
X14915301Y-14493150D01*
X14915301Y-14493150D02*
X14934349Y-14502674D01*
X15010539Y-14702674D02*
X15020063Y-14693150D01*
X15020063Y-14693150D02*
X15039111Y-14664579D01*
X15039111Y-14664579D02*
X15048634Y-14645531D01*
X15048634Y-14645531D02*
X15058158Y-14616960D01*
X15058158Y-14616960D02*
X15067682Y-14569341D01*
X15067682Y-14569341D02*
X15067682Y-14531246D01*
X15067682Y-14531246D02*
X15058158Y-14483627D01*
X15058158Y-14483627D02*
X15048634Y-14455055D01*
X15048634Y-14455055D02*
X15039111Y-14436008D01*
X15039111Y-14436008D02*
X15020063Y-14407436D01*
X15020063Y-14407436D02*
X15010539Y-14397912D01*
D10*
X10045000Y-14799000D02*
G75*
G03*
X10045000Y-14799000I-30000J0D01*
G01*
D11*
X10343872Y-14690484D02*
X10362920Y-14690484D01*
X10362920Y-14690484D02*
X10381967Y-14700008D01*
X10381967Y-14700008D02*
X10391491Y-14709531D01*
X10391491Y-14709531D02*
X10401015Y-14728579D01*
X10401015Y-14728579D02*
X10410539Y-14766674D01*
X10410539Y-14766674D02*
X10410539Y-14814293D01*
X10410539Y-14814293D02*
X10401015Y-14852388D01*
X10401015Y-14852388D02*
X10391491Y-14871436D01*
X10391491Y-14871436D02*
X10381967Y-14880960D01*
X10381967Y-14880960D02*
X10362920Y-14890484D01*
X10362920Y-14890484D02*
X10343872Y-14890484D01*
X10343872Y-14890484D02*
X10324824Y-14880960D01*
X10324824Y-14880960D02*
X10315301Y-14871436D01*
X10315301Y-14871436D02*
X10305777Y-14852388D01*
X10305777Y-14852388D02*
X10296253Y-14814293D01*
X10296253Y-14814293D02*
X10296253Y-14766674D01*
X10296253Y-14766674D02*
X10305777Y-14728579D01*
X10305777Y-14728579D02*
X10315301Y-14709531D01*
X10315301Y-14709531D02*
X10324824Y-14700008D01*
X10324824Y-14700008D02*
X10343872Y-14690484D01*
X10496253Y-14871436D02*
X10505777Y-14880960D01*
X10505777Y-14880960D02*
X10496253Y-14890484D01*
X10496253Y-14890484D02*
X10486729Y-14880960D01*
X10486729Y-14880960D02*
X10496253Y-14871436D01*
X10496253Y-14871436D02*
X10496253Y-14890484D01*
X10677205Y-14690484D02*
X10639110Y-14690484D01*
X10639110Y-14690484D02*
X10620063Y-14700008D01*
X10620063Y-14700008D02*
X10610539Y-14709531D01*
X10610539Y-14709531D02*
X10591491Y-14738103D01*
X10591491Y-14738103D02*
X10581967Y-14776198D01*
X10581967Y-14776198D02*
X10581967Y-14852388D01*
X10581967Y-14852388D02*
X10591491Y-14871436D01*
X10591491Y-14871436D02*
X10601015Y-14880960D01*
X10601015Y-14880960D02*
X10620063Y-14890484D01*
X10620063Y-14890484D02*
X10658158Y-14890484D01*
X10658158Y-14890484D02*
X10677205Y-14880960D01*
X10677205Y-14880960D02*
X10686729Y-14871436D01*
X10686729Y-14871436D02*
X10696253Y-14852388D01*
X10696253Y-14852388D02*
X10696253Y-14804769D01*
X10696253Y-14804769D02*
X10686729Y-14785722D01*
X10686729Y-14785722D02*
X10677205Y-14776198D01*
X10677205Y-14776198D02*
X10658158Y-14766674D01*
X10658158Y-14766674D02*
X10620063Y-14766674D01*
X10620063Y-14766674D02*
X10601015Y-14776198D01*
X10601015Y-14776198D02*
X10591491Y-14785722D01*
X10591491Y-14785722D02*
X10581967Y-14804769D01*
X10820063Y-14690484D02*
X10839110Y-14690484D01*
X10839110Y-14690484D02*
X10858158Y-14700008D01*
X10858158Y-14700008D02*
X10867682Y-14709531D01*
X10867682Y-14709531D02*
X10877205Y-14728579D01*
X10877205Y-14728579D02*
X10886729Y-14766674D01*
X10886729Y-14766674D02*
X10886729Y-14814293D01*
X10886729Y-14814293D02*
X10877205Y-14852388D01*
X10877205Y-14852388D02*
X10867682Y-14871436D01*
X10867682Y-14871436D02*
X10858158Y-14880960D01*
X10858158Y-14880960D02*
X10839110Y-14890484D01*
X10839110Y-14890484D02*
X10820063Y-14890484D01*
X10820063Y-14890484D02*
X10801015Y-14880960D01*
X10801015Y-14880960D02*
X10791491Y-14871436D01*
X10791491Y-14871436D02*
X10781967Y-14852388D01*
X10781967Y-14852388D02*
X10772444Y-14814293D01*
X10772444Y-14814293D02*
X10772444Y-14766674D01*
X10772444Y-14766674D02*
X10781967Y-14728579D01*
X10781967Y-14728579D02*
X10791491Y-14709531D01*
X10791491Y-14709531D02*
X10801015Y-14700008D01*
X10801015Y-14700008D02*
X10820063Y-14690484D01*
X11010539Y-14690484D02*
X11029586Y-14690484D01*
X11029586Y-14690484D02*
X11048634Y-14700008D01*
X11048634Y-14700008D02*
X11058158Y-14709531D01*
X11058158Y-14709531D02*
X11067682Y-14728579D01*
X11067682Y-14728579D02*
X11077205Y-14766674D01*
X11077205Y-14766674D02*
X11077205Y-14814293D01*
X11077205Y-14814293D02*
X11067682Y-14852388D01*
X11067682Y-14852388D02*
X11058158Y-14871436D01*
X11058158Y-14871436D02*
X11048634Y-14880960D01*
X11048634Y-14880960D02*
X11029586Y-14890484D01*
X11029586Y-14890484D02*
X11010539Y-14890484D01*
X11010539Y-14890484D02*
X10991491Y-14880960D01*
X10991491Y-14880960D02*
X10981967Y-14871436D01*
X10981967Y-14871436D02*
X10972444Y-14852388D01*
X10972444Y-14852388D02*
X10962920Y-14814293D01*
X10962920Y-14814293D02*
X10962920Y-14766674D01*
X10962920Y-14766674D02*
X10972444Y-14728579D01*
X10972444Y-14728579D02*
X10981967Y-14709531D01*
X10981967Y-14709531D02*
X10991491Y-14700008D01*
X10991491Y-14700008D02*
X11010539Y-14690484D01*
X11162920Y-14890484D02*
X11162920Y-14757150D01*
X11162920Y-14776198D02*
X11172444Y-14766674D01*
X11172444Y-14766674D02*
X11191491Y-14757150D01*
X11191491Y-14757150D02*
X11220063Y-14757150D01*
X11220063Y-14757150D02*
X11239110Y-14766674D01*
X11239110Y-14766674D02*
X11248634Y-14785722D01*
X11248634Y-14785722D02*
X11248634Y-14890484D01*
X11248634Y-14785722D02*
X11258158Y-14766674D01*
X11258158Y-14766674D02*
X11277205Y-14757150D01*
X11277205Y-14757150D02*
X11305777Y-14757150D01*
X11305777Y-14757150D02*
X11324824Y-14766674D01*
X11324824Y-14766674D02*
X11334348Y-14785722D01*
X11334348Y-14785722D02*
X11334348Y-14890484D01*
X11429586Y-14890484D02*
X11429586Y-14757150D01*
X11429586Y-14776198D02*
X11439110Y-14766674D01*
X11439110Y-14766674D02*
X11458158Y-14757150D01*
X11458158Y-14757150D02*
X11486729Y-14757150D01*
X11486729Y-14757150D02*
X11505777Y-14766674D01*
X11505777Y-14766674D02*
X11515301Y-14785722D01*
X11515301Y-14785722D02*
X11515301Y-14890484D01*
X11515301Y-14785722D02*
X11524824Y-14766674D01*
X11524824Y-14766674D02*
X11543872Y-14757150D01*
X11543872Y-14757150D02*
X11572443Y-14757150D01*
X11572443Y-14757150D02*
X11591491Y-14766674D01*
X11591491Y-14766674D02*
X11601015Y-14785722D01*
X11601015Y-14785722D02*
X11601015Y-14890484D01*
X11991491Y-14680960D02*
X11820063Y-14938103D01*
X12248634Y-14690484D02*
X12267682Y-14690484D01*
X12267682Y-14690484D02*
X12286729Y-14700008D01*
X12286729Y-14700008D02*
X12296253Y-14709531D01*
X12296253Y-14709531D02*
X12305777Y-14728579D01*
X12305777Y-14728579D02*
X12315301Y-14766674D01*
X12315301Y-14766674D02*
X12315301Y-14814293D01*
X12315301Y-14814293D02*
X12305777Y-14852388D01*
X12305777Y-14852388D02*
X12296253Y-14871436D01*
X12296253Y-14871436D02*
X12286729Y-14880960D01*
X12286729Y-14880960D02*
X12267682Y-14890484D01*
X12267682Y-14890484D02*
X12248634Y-14890484D01*
X12248634Y-14890484D02*
X12229586Y-14880960D01*
X12229586Y-14880960D02*
X12220063Y-14871436D01*
X12220063Y-14871436D02*
X12210539Y-14852388D01*
X12210539Y-14852388D02*
X12201015Y-14814293D01*
X12201015Y-14814293D02*
X12201015Y-14766674D01*
X12201015Y-14766674D02*
X12210539Y-14728579D01*
X12210539Y-14728579D02*
X12220063Y-14709531D01*
X12220063Y-14709531D02*
X12229586Y-14700008D01*
X12229586Y-14700008D02*
X12248634Y-14690484D01*
X12401015Y-14871436D02*
X12410539Y-14880960D01*
X12410539Y-14880960D02*
X12401015Y-14890484D01*
X12401015Y-14890484D02*
X12391491Y-14880960D01*
X12391491Y-14880960D02*
X12401015Y-14871436D01*
X12401015Y-14871436D02*
X12401015Y-14890484D01*
X12534348Y-14690484D02*
X12553396Y-14690484D01*
X12553396Y-14690484D02*
X12572444Y-14700008D01*
X12572444Y-14700008D02*
X12581967Y-14709531D01*
X12581967Y-14709531D02*
X12591491Y-14728579D01*
X12591491Y-14728579D02*
X12601015Y-14766674D01*
X12601015Y-14766674D02*
X12601015Y-14814293D01*
X12601015Y-14814293D02*
X12591491Y-14852388D01*
X12591491Y-14852388D02*
X12581967Y-14871436D01*
X12581967Y-14871436D02*
X12572444Y-14880960D01*
X12572444Y-14880960D02*
X12553396Y-14890484D01*
X12553396Y-14890484D02*
X12534348Y-14890484D01*
X12534348Y-14890484D02*
X12515301Y-14880960D01*
X12515301Y-14880960D02*
X12505777Y-14871436D01*
X12505777Y-14871436D02*
X12496253Y-14852388D01*
X12496253Y-14852388D02*
X12486729Y-14814293D01*
X12486729Y-14814293D02*
X12486729Y-14766674D01*
X12486729Y-14766674D02*
X12496253Y-14728579D01*
X12496253Y-14728579D02*
X12505777Y-14709531D01*
X12505777Y-14709531D02*
X12515301Y-14700008D01*
X12515301Y-14700008D02*
X12534348Y-14690484D01*
X12677206Y-14709531D02*
X12686729Y-14700008D01*
X12686729Y-14700008D02*
X12705777Y-14690484D01*
X12705777Y-14690484D02*
X12753396Y-14690484D01*
X12753396Y-14690484D02*
X12772444Y-14700008D01*
X12772444Y-14700008D02*
X12781967Y-14709531D01*
X12781967Y-14709531D02*
X12791491Y-14728579D01*
X12791491Y-14728579D02*
X12791491Y-14747627D01*
X12791491Y-14747627D02*
X12781967Y-14776198D01*
X12781967Y-14776198D02*
X12667682Y-14890484D01*
X12667682Y-14890484D02*
X12791491Y-14890484D01*
X12858158Y-14690484D02*
X12981967Y-14690484D01*
X12981967Y-14690484D02*
X12915301Y-14766674D01*
X12915301Y-14766674D02*
X12943872Y-14766674D01*
X12943872Y-14766674D02*
X12962920Y-14776198D01*
X12962920Y-14776198D02*
X12972444Y-14785722D01*
X12972444Y-14785722D02*
X12981967Y-14804769D01*
X12981967Y-14804769D02*
X12981967Y-14852388D01*
X12981967Y-14852388D02*
X12972444Y-14871436D01*
X12972444Y-14871436D02*
X12962920Y-14880960D01*
X12962920Y-14880960D02*
X12943872Y-14890484D01*
X12943872Y-14890484D02*
X12886729Y-14890484D01*
X12886729Y-14890484D02*
X12867682Y-14880960D01*
X12867682Y-14880960D02*
X12858158Y-14871436D01*
X13153396Y-14690484D02*
X13115301Y-14690484D01*
X13115301Y-14690484D02*
X13096253Y-14700008D01*
X13096253Y-14700008D02*
X13086729Y-14709531D01*
X13086729Y-14709531D02*
X13067682Y-14738103D01*
X13067682Y-14738103D02*
X13058158Y-14776198D01*
X13058158Y-14776198D02*
X13058158Y-14852388D01*
X13058158Y-14852388D02*
X13067682Y-14871436D01*
X13067682Y-14871436D02*
X13077206Y-14880960D01*
X13077206Y-14880960D02*
X13096253Y-14890484D01*
X13096253Y-14890484D02*
X13134348Y-14890484D01*
X13134348Y-14890484D02*
X13153396Y-14880960D01*
X13153396Y-14880960D02*
X13162920Y-14871436D01*
X13162920Y-14871436D02*
X13172444Y-14852388D01*
X13172444Y-14852388D02*
X13172444Y-14804769D01*
X13172444Y-14804769D02*
X13162920Y-14785722D01*
X13162920Y-14785722D02*
X13153396Y-14776198D01*
X13153396Y-14776198D02*
X13134348Y-14766674D01*
X13134348Y-14766674D02*
X13096253Y-14766674D01*
X13096253Y-14766674D02*
X13077206Y-14776198D01*
X13077206Y-14776198D02*
X13067682Y-14785722D01*
X13067682Y-14785722D02*
X13058158Y-14804769D01*
X13248634Y-14690484D02*
X13248634Y-14728579D01*
X13324825Y-14690484D02*
X13324825Y-14728579D01*
X13620063Y-14966674D02*
X13610539Y-14957150D01*
X13610539Y-14957150D02*
X13591491Y-14928579D01*
X13591491Y-14928579D02*
X13581968Y-14909531D01*
X13581968Y-14909531D02*
X13572444Y-14880960D01*
X13572444Y-14880960D02*
X13562920Y-14833341D01*
X13562920Y-14833341D02*
X13562920Y-14795246D01*
X13562920Y-14795246D02*
X13572444Y-14747627D01*
X13572444Y-14747627D02*
X13581968Y-14719055D01*
X13581968Y-14719055D02*
X13591491Y-14700008D01*
X13591491Y-14700008D02*
X13610539Y-14671436D01*
X13610539Y-14671436D02*
X13620063Y-14661912D01*
X13781968Y-14690484D02*
X13743872Y-14690484D01*
X13743872Y-14690484D02*
X13724825Y-14700008D01*
X13724825Y-14700008D02*
X13715301Y-14709531D01*
X13715301Y-14709531D02*
X13696253Y-14738103D01*
X13696253Y-14738103D02*
X13686729Y-14776198D01*
X13686729Y-14776198D02*
X13686729Y-14852388D01*
X13686729Y-14852388D02*
X13696253Y-14871436D01*
X13696253Y-14871436D02*
X13705777Y-14880960D01*
X13705777Y-14880960D02*
X13724825Y-14890484D01*
X13724825Y-14890484D02*
X13762920Y-14890484D01*
X13762920Y-14890484D02*
X13781968Y-14880960D01*
X13781968Y-14880960D02*
X13791491Y-14871436D01*
X13791491Y-14871436D02*
X13801015Y-14852388D01*
X13801015Y-14852388D02*
X13801015Y-14804769D01*
X13801015Y-14804769D02*
X13791491Y-14785722D01*
X13791491Y-14785722D02*
X13781968Y-14776198D01*
X13781968Y-14776198D02*
X13762920Y-14766674D01*
X13762920Y-14766674D02*
X13724825Y-14766674D01*
X13724825Y-14766674D02*
X13705777Y-14776198D01*
X13705777Y-14776198D02*
X13696253Y-14785722D01*
X13696253Y-14785722D02*
X13686729Y-14804769D01*
X13924825Y-14690484D02*
X13943872Y-14690484D01*
X13943872Y-14690484D02*
X13962920Y-14700008D01*
X13962920Y-14700008D02*
X13972444Y-14709531D01*
X13972444Y-14709531D02*
X13981968Y-14728579D01*
X13981968Y-14728579D02*
X13991491Y-14766674D01*
X13991491Y-14766674D02*
X13991491Y-14814293D01*
X13991491Y-14814293D02*
X13981968Y-14852388D01*
X13981968Y-14852388D02*
X13972444Y-14871436D01*
X13972444Y-14871436D02*
X13962920Y-14880960D01*
X13962920Y-14880960D02*
X13943872Y-14890484D01*
X13943872Y-14890484D02*
X13924825Y-14890484D01*
X13924825Y-14890484D02*
X13905777Y-14880960D01*
X13905777Y-14880960D02*
X13896253Y-14871436D01*
X13896253Y-14871436D02*
X13886729Y-14852388D01*
X13886729Y-14852388D02*
X13877206Y-14814293D01*
X13877206Y-14814293D02*
X13877206Y-14766674D01*
X13877206Y-14766674D02*
X13886729Y-14728579D01*
X13886729Y-14728579D02*
X13896253Y-14709531D01*
X13896253Y-14709531D02*
X13905777Y-14700008D01*
X13905777Y-14700008D02*
X13924825Y-14690484D01*
X14229587Y-14890484D02*
X14229587Y-14690484D01*
X14315301Y-14890484D02*
X14315301Y-14785722D01*
X14315301Y-14785722D02*
X14305777Y-14766674D01*
X14305777Y-14766674D02*
X14286730Y-14757150D01*
X14286730Y-14757150D02*
X14258158Y-14757150D01*
X14258158Y-14757150D02*
X14239110Y-14766674D01*
X14239110Y-14766674D02*
X14229587Y-14776198D01*
X14439110Y-14890484D02*
X14420063Y-14880960D01*
X14420063Y-14880960D02*
X14410539Y-14871436D01*
X14410539Y-14871436D02*
X14401015Y-14852388D01*
X14401015Y-14852388D02*
X14401015Y-14795246D01*
X14401015Y-14795246D02*
X14410539Y-14776198D01*
X14410539Y-14776198D02*
X14420063Y-14766674D01*
X14420063Y-14766674D02*
X14439110Y-14757150D01*
X14439110Y-14757150D02*
X14467682Y-14757150D01*
X14467682Y-14757150D02*
X14486730Y-14766674D01*
X14486730Y-14766674D02*
X14496253Y-14776198D01*
X14496253Y-14776198D02*
X14505777Y-14795246D01*
X14505777Y-14795246D02*
X14505777Y-14852388D01*
X14505777Y-14852388D02*
X14496253Y-14871436D01*
X14496253Y-14871436D02*
X14486730Y-14880960D01*
X14486730Y-14880960D02*
X14467682Y-14890484D01*
X14467682Y-14890484D02*
X14439110Y-14890484D01*
X14620063Y-14890484D02*
X14601015Y-14880960D01*
X14601015Y-14880960D02*
X14591491Y-14861912D01*
X14591491Y-14861912D02*
X14591491Y-14690484D01*
X14772444Y-14880960D02*
X14753396Y-14890484D01*
X14753396Y-14890484D02*
X14715301Y-14890484D01*
X14715301Y-14890484D02*
X14696253Y-14880960D01*
X14696253Y-14880960D02*
X14686730Y-14861912D01*
X14686730Y-14861912D02*
X14686730Y-14785722D01*
X14686730Y-14785722D02*
X14696253Y-14766674D01*
X14696253Y-14766674D02*
X14715301Y-14757150D01*
X14715301Y-14757150D02*
X14753396Y-14757150D01*
X14753396Y-14757150D02*
X14772444Y-14766674D01*
X14772444Y-14766674D02*
X14781968Y-14785722D01*
X14781968Y-14785722D02*
X14781968Y-14804769D01*
X14781968Y-14804769D02*
X14686730Y-14823817D01*
X14858158Y-14880960D02*
X14877206Y-14890484D01*
X14877206Y-14890484D02*
X14915301Y-14890484D01*
X14915301Y-14890484D02*
X14934349Y-14880960D01*
X14934349Y-14880960D02*
X14943872Y-14861912D01*
X14943872Y-14861912D02*
X14943872Y-14852388D01*
X14943872Y-14852388D02*
X14934349Y-14833341D01*
X14934349Y-14833341D02*
X14915301Y-14823817D01*
X14915301Y-14823817D02*
X14886730Y-14823817D01*
X14886730Y-14823817D02*
X14867682Y-14814293D01*
X14867682Y-14814293D02*
X14858158Y-14795246D01*
X14858158Y-14795246D02*
X14858158Y-14785722D01*
X14858158Y-14785722D02*
X14867682Y-14766674D01*
X14867682Y-14766674D02*
X14886730Y-14757150D01*
X14886730Y-14757150D02*
X14915301Y-14757150D01*
X14915301Y-14757150D02*
X14934349Y-14766674D01*
X15010539Y-14966674D02*
X15020063Y-14957150D01*
X15020063Y-14957150D02*
X15039111Y-14928579D01*
X15039111Y-14928579D02*
X15048634Y-14909531D01*
X15048634Y-14909531D02*
X15058158Y-14880960D01*
X15058158Y-14880960D02*
X15067682Y-14833341D01*
X15067682Y-14833341D02*
X15067682Y-14795246D01*
X15067682Y-14795246D02*
X15058158Y-14747627D01*
X15058158Y-14747627D02*
X15048634Y-14719055D01*
X15048634Y-14719055D02*
X15039111Y-14700008D01*
X15039111Y-14700008D02*
X15020063Y-14671436D01*
X15020063Y-14671436D02*
X15010539Y-14661912D01*
D10*
X9995000Y-15013000D02*
X9995000Y-15113000D01*
X9945000Y-15063000D02*
X10045000Y-15063000D01*
D11*
X10410539Y-15154484D02*
X10296253Y-15154484D01*
X10353396Y-15154484D02*
X10353396Y-14954484D01*
X10353396Y-14954484D02*
X10334348Y-14983055D01*
X10334348Y-14983055D02*
X10315301Y-15002103D01*
X10315301Y-15002103D02*
X10296253Y-15011627D01*
X10496253Y-15135436D02*
X10505777Y-15144960D01*
X10505777Y-15144960D02*
X10496253Y-15154484D01*
X10496253Y-15154484D02*
X10486729Y-15144960D01*
X10486729Y-15144960D02*
X10496253Y-15135436D01*
X10496253Y-15135436D02*
X10496253Y-15154484D01*
X10629586Y-14954484D02*
X10648634Y-14954484D01*
X10648634Y-14954484D02*
X10667682Y-14964008D01*
X10667682Y-14964008D02*
X10677205Y-14973531D01*
X10677205Y-14973531D02*
X10686729Y-14992579D01*
X10686729Y-14992579D02*
X10696253Y-15030674D01*
X10696253Y-15030674D02*
X10696253Y-15078293D01*
X10696253Y-15078293D02*
X10686729Y-15116388D01*
X10686729Y-15116388D02*
X10677205Y-15135436D01*
X10677205Y-15135436D02*
X10667682Y-15144960D01*
X10667682Y-15144960D02*
X10648634Y-15154484D01*
X10648634Y-15154484D02*
X10629586Y-15154484D01*
X10629586Y-15154484D02*
X10610539Y-15144960D01*
X10610539Y-15144960D02*
X10601015Y-15135436D01*
X10601015Y-15135436D02*
X10591491Y-15116388D01*
X10591491Y-15116388D02*
X10581967Y-15078293D01*
X10581967Y-15078293D02*
X10581967Y-15030674D01*
X10581967Y-15030674D02*
X10591491Y-14992579D01*
X10591491Y-14992579D02*
X10601015Y-14973531D01*
X10601015Y-14973531D02*
X10610539Y-14964008D01*
X10610539Y-14964008D02*
X10629586Y-14954484D01*
X10820063Y-14954484D02*
X10839110Y-14954484D01*
X10839110Y-14954484D02*
X10858158Y-14964008D01*
X10858158Y-14964008D02*
X10867682Y-14973531D01*
X10867682Y-14973531D02*
X10877205Y-14992579D01*
X10877205Y-14992579D02*
X10886729Y-15030674D01*
X10886729Y-15030674D02*
X10886729Y-15078293D01*
X10886729Y-15078293D02*
X10877205Y-15116388D01*
X10877205Y-15116388D02*
X10867682Y-15135436D01*
X10867682Y-15135436D02*
X10858158Y-15144960D01*
X10858158Y-15144960D02*
X10839110Y-15154484D01*
X10839110Y-15154484D02*
X10820063Y-15154484D01*
X10820063Y-15154484D02*
X10801015Y-15144960D01*
X10801015Y-15144960D02*
X10791491Y-15135436D01*
X10791491Y-15135436D02*
X10781967Y-15116388D01*
X10781967Y-15116388D02*
X10772444Y-15078293D01*
X10772444Y-15078293D02*
X10772444Y-15030674D01*
X10772444Y-15030674D02*
X10781967Y-14992579D01*
X10781967Y-14992579D02*
X10791491Y-14973531D01*
X10791491Y-14973531D02*
X10801015Y-14964008D01*
X10801015Y-14964008D02*
X10820063Y-14954484D01*
X11010539Y-14954484D02*
X11029586Y-14954484D01*
X11029586Y-14954484D02*
X11048634Y-14964008D01*
X11048634Y-14964008D02*
X11058158Y-14973531D01*
X11058158Y-14973531D02*
X11067682Y-14992579D01*
X11067682Y-14992579D02*
X11077205Y-15030674D01*
X11077205Y-15030674D02*
X11077205Y-15078293D01*
X11077205Y-15078293D02*
X11067682Y-15116388D01*
X11067682Y-15116388D02*
X11058158Y-15135436D01*
X11058158Y-15135436D02*
X11048634Y-15144960D01*
X11048634Y-15144960D02*
X11029586Y-15154484D01*
X11029586Y-15154484D02*
X11010539Y-15154484D01*
X11010539Y-15154484D02*
X10991491Y-15144960D01*
X10991491Y-15144960D02*
X10981967Y-15135436D01*
X10981967Y-15135436D02*
X10972444Y-15116388D01*
X10972444Y-15116388D02*
X10962920Y-15078293D01*
X10962920Y-15078293D02*
X10962920Y-15030674D01*
X10962920Y-15030674D02*
X10972444Y-14992579D01*
X10972444Y-14992579D02*
X10981967Y-14973531D01*
X10981967Y-14973531D02*
X10991491Y-14964008D01*
X10991491Y-14964008D02*
X11010539Y-14954484D01*
X11162920Y-15154484D02*
X11162920Y-15021150D01*
X11162920Y-15040198D02*
X11172444Y-15030674D01*
X11172444Y-15030674D02*
X11191491Y-15021150D01*
X11191491Y-15021150D02*
X11220063Y-15021150D01*
X11220063Y-15021150D02*
X11239110Y-15030674D01*
X11239110Y-15030674D02*
X11248634Y-15049722D01*
X11248634Y-15049722D02*
X11248634Y-15154484D01*
X11248634Y-15049722D02*
X11258158Y-15030674D01*
X11258158Y-15030674D02*
X11277205Y-15021150D01*
X11277205Y-15021150D02*
X11305777Y-15021150D01*
X11305777Y-15021150D02*
X11324824Y-15030674D01*
X11324824Y-15030674D02*
X11334348Y-15049722D01*
X11334348Y-15049722D02*
X11334348Y-15154484D01*
X11429586Y-15154484D02*
X11429586Y-15021150D01*
X11429586Y-15040198D02*
X11439110Y-15030674D01*
X11439110Y-15030674D02*
X11458158Y-15021150D01*
X11458158Y-15021150D02*
X11486729Y-15021150D01*
X11486729Y-15021150D02*
X11505777Y-15030674D01*
X11505777Y-15030674D02*
X11515301Y-15049722D01*
X11515301Y-15049722D02*
X11515301Y-15154484D01*
X11515301Y-15049722D02*
X11524824Y-15030674D01*
X11524824Y-15030674D02*
X11543872Y-15021150D01*
X11543872Y-15021150D02*
X11572443Y-15021150D01*
X11572443Y-15021150D02*
X11591491Y-15030674D01*
X11591491Y-15030674D02*
X11601015Y-15049722D01*
X11601015Y-15049722D02*
X11601015Y-15154484D01*
X11991491Y-14944960D02*
X11820063Y-15202103D01*
X12248634Y-14954484D02*
X12267682Y-14954484D01*
X12267682Y-14954484D02*
X12286729Y-14964008D01*
X12286729Y-14964008D02*
X12296253Y-14973531D01*
X12296253Y-14973531D02*
X12305777Y-14992579D01*
X12305777Y-14992579D02*
X12315301Y-15030674D01*
X12315301Y-15030674D02*
X12315301Y-15078293D01*
X12315301Y-15078293D02*
X12305777Y-15116388D01*
X12305777Y-15116388D02*
X12296253Y-15135436D01*
X12296253Y-15135436D02*
X12286729Y-15144960D01*
X12286729Y-15144960D02*
X12267682Y-15154484D01*
X12267682Y-15154484D02*
X12248634Y-15154484D01*
X12248634Y-15154484D02*
X12229586Y-15144960D01*
X12229586Y-15144960D02*
X12220063Y-15135436D01*
X12220063Y-15135436D02*
X12210539Y-15116388D01*
X12210539Y-15116388D02*
X12201015Y-15078293D01*
X12201015Y-15078293D02*
X12201015Y-15030674D01*
X12201015Y-15030674D02*
X12210539Y-14992579D01*
X12210539Y-14992579D02*
X12220063Y-14973531D01*
X12220063Y-14973531D02*
X12229586Y-14964008D01*
X12229586Y-14964008D02*
X12248634Y-14954484D01*
X12401015Y-15135436D02*
X12410539Y-15144960D01*
X12410539Y-15144960D02*
X12401015Y-15154484D01*
X12401015Y-15154484D02*
X12391491Y-15144960D01*
X12391491Y-15144960D02*
X12401015Y-15135436D01*
X12401015Y-15135436D02*
X12401015Y-15154484D01*
X12534348Y-14954484D02*
X12553396Y-14954484D01*
X12553396Y-14954484D02*
X12572444Y-14964008D01*
X12572444Y-14964008D02*
X12581967Y-14973531D01*
X12581967Y-14973531D02*
X12591491Y-14992579D01*
X12591491Y-14992579D02*
X12601015Y-15030674D01*
X12601015Y-15030674D02*
X12601015Y-15078293D01*
X12601015Y-15078293D02*
X12591491Y-15116388D01*
X12591491Y-15116388D02*
X12581967Y-15135436D01*
X12581967Y-15135436D02*
X12572444Y-15144960D01*
X12572444Y-15144960D02*
X12553396Y-15154484D01*
X12553396Y-15154484D02*
X12534348Y-15154484D01*
X12534348Y-15154484D02*
X12515301Y-15144960D01*
X12515301Y-15144960D02*
X12505777Y-15135436D01*
X12505777Y-15135436D02*
X12496253Y-15116388D01*
X12496253Y-15116388D02*
X12486729Y-15078293D01*
X12486729Y-15078293D02*
X12486729Y-15030674D01*
X12486729Y-15030674D02*
X12496253Y-14992579D01*
X12496253Y-14992579D02*
X12505777Y-14973531D01*
X12505777Y-14973531D02*
X12515301Y-14964008D01*
X12515301Y-14964008D02*
X12534348Y-14954484D01*
X12667682Y-14954484D02*
X12791491Y-14954484D01*
X12791491Y-14954484D02*
X12724825Y-15030674D01*
X12724825Y-15030674D02*
X12753396Y-15030674D01*
X12753396Y-15030674D02*
X12772444Y-15040198D01*
X12772444Y-15040198D02*
X12781967Y-15049722D01*
X12781967Y-15049722D02*
X12791491Y-15068769D01*
X12791491Y-15068769D02*
X12791491Y-15116388D01*
X12791491Y-15116388D02*
X12781967Y-15135436D01*
X12781967Y-15135436D02*
X12772444Y-15144960D01*
X12772444Y-15144960D02*
X12753396Y-15154484D01*
X12753396Y-15154484D02*
X12696253Y-15154484D01*
X12696253Y-15154484D02*
X12677206Y-15144960D01*
X12677206Y-15144960D02*
X12667682Y-15135436D01*
X12886729Y-15154484D02*
X12924825Y-15154484D01*
X12924825Y-15154484D02*
X12943872Y-15144960D01*
X12943872Y-15144960D02*
X12953396Y-15135436D01*
X12953396Y-15135436D02*
X12972444Y-15106865D01*
X12972444Y-15106865D02*
X12981967Y-15068769D01*
X12981967Y-15068769D02*
X12981967Y-14992579D01*
X12981967Y-14992579D02*
X12972444Y-14973531D01*
X12972444Y-14973531D02*
X12962920Y-14964008D01*
X12962920Y-14964008D02*
X12943872Y-14954484D01*
X12943872Y-14954484D02*
X12905777Y-14954484D01*
X12905777Y-14954484D02*
X12886729Y-14964008D01*
X12886729Y-14964008D02*
X12877206Y-14973531D01*
X12877206Y-14973531D02*
X12867682Y-14992579D01*
X12867682Y-14992579D02*
X12867682Y-15040198D01*
X12867682Y-15040198D02*
X12877206Y-15059246D01*
X12877206Y-15059246D02*
X12886729Y-15068769D01*
X12886729Y-15068769D02*
X12905777Y-15078293D01*
X12905777Y-15078293D02*
X12943872Y-15078293D01*
X12943872Y-15078293D02*
X12962920Y-15068769D01*
X12962920Y-15068769D02*
X12972444Y-15059246D01*
X12972444Y-15059246D02*
X12981967Y-15040198D01*
X13153396Y-15021150D02*
X13153396Y-15154484D01*
X13105777Y-14944960D02*
X13058158Y-15087817D01*
X13058158Y-15087817D02*
X13181967Y-15087817D01*
X13248634Y-14954484D02*
X13248634Y-14992579D01*
X13324825Y-14954484D02*
X13324825Y-14992579D01*
X13620063Y-15230674D02*
X13610539Y-15221150D01*
X13610539Y-15221150D02*
X13591491Y-15192579D01*
X13591491Y-15192579D02*
X13581968Y-15173531D01*
X13581968Y-15173531D02*
X13572444Y-15144960D01*
X13572444Y-15144960D02*
X13562920Y-15097341D01*
X13562920Y-15097341D02*
X13562920Y-15059246D01*
X13562920Y-15059246D02*
X13572444Y-15011627D01*
X13572444Y-15011627D02*
X13581968Y-14983055D01*
X13581968Y-14983055D02*
X13591491Y-14964008D01*
X13591491Y-14964008D02*
X13610539Y-14935436D01*
X13610539Y-14935436D02*
X13620063Y-14925912D01*
X13781968Y-15021150D02*
X13781968Y-15154484D01*
X13734348Y-14944960D02*
X13686729Y-15087817D01*
X13686729Y-15087817D02*
X13810539Y-15087817D01*
X13924825Y-14954484D02*
X13943872Y-14954484D01*
X13943872Y-14954484D02*
X13962920Y-14964008D01*
X13962920Y-14964008D02*
X13972444Y-14973531D01*
X13972444Y-14973531D02*
X13981968Y-14992579D01*
X13981968Y-14992579D02*
X13991491Y-15030674D01*
X13991491Y-15030674D02*
X13991491Y-15078293D01*
X13991491Y-15078293D02*
X13981968Y-15116388D01*
X13981968Y-15116388D02*
X13972444Y-15135436D01*
X13972444Y-15135436D02*
X13962920Y-15144960D01*
X13962920Y-15144960D02*
X13943872Y-15154484D01*
X13943872Y-15154484D02*
X13924825Y-15154484D01*
X13924825Y-15154484D02*
X13905777Y-15144960D01*
X13905777Y-15144960D02*
X13896253Y-15135436D01*
X13896253Y-15135436D02*
X13886729Y-15116388D01*
X13886729Y-15116388D02*
X13877206Y-15078293D01*
X13877206Y-15078293D02*
X13877206Y-15030674D01*
X13877206Y-15030674D02*
X13886729Y-14992579D01*
X13886729Y-14992579D02*
X13896253Y-14973531D01*
X13896253Y-14973531D02*
X13905777Y-14964008D01*
X13905777Y-14964008D02*
X13924825Y-14954484D01*
X14229587Y-15154484D02*
X14229587Y-14954484D01*
X14315301Y-15154484D02*
X14315301Y-15049722D01*
X14315301Y-15049722D02*
X14305777Y-15030674D01*
X14305777Y-15030674D02*
X14286730Y-15021150D01*
X14286730Y-15021150D02*
X14258158Y-15021150D01*
X14258158Y-15021150D02*
X14239110Y-15030674D01*
X14239110Y-15030674D02*
X14229587Y-15040198D01*
X14439110Y-15154484D02*
X14420063Y-15144960D01*
X14420063Y-15144960D02*
X14410539Y-15135436D01*
X14410539Y-15135436D02*
X14401015Y-15116388D01*
X14401015Y-15116388D02*
X14401015Y-15059246D01*
X14401015Y-15059246D02*
X14410539Y-15040198D01*
X14410539Y-15040198D02*
X14420063Y-15030674D01*
X14420063Y-15030674D02*
X14439110Y-15021150D01*
X14439110Y-15021150D02*
X14467682Y-15021150D01*
X14467682Y-15021150D02*
X14486730Y-15030674D01*
X14486730Y-15030674D02*
X14496253Y-15040198D01*
X14496253Y-15040198D02*
X14505777Y-15059246D01*
X14505777Y-15059246D02*
X14505777Y-15116388D01*
X14505777Y-15116388D02*
X14496253Y-15135436D01*
X14496253Y-15135436D02*
X14486730Y-15144960D01*
X14486730Y-15144960D02*
X14467682Y-15154484D01*
X14467682Y-15154484D02*
X14439110Y-15154484D01*
X14620063Y-15154484D02*
X14601015Y-15144960D01*
X14601015Y-15144960D02*
X14591491Y-15125912D01*
X14591491Y-15125912D02*
X14591491Y-14954484D01*
X14772444Y-15144960D02*
X14753396Y-15154484D01*
X14753396Y-15154484D02*
X14715301Y-15154484D01*
X14715301Y-15154484D02*
X14696253Y-15144960D01*
X14696253Y-15144960D02*
X14686730Y-15125912D01*
X14686730Y-15125912D02*
X14686730Y-15049722D01*
X14686730Y-15049722D02*
X14696253Y-15030674D01*
X14696253Y-15030674D02*
X14715301Y-15021150D01*
X14715301Y-15021150D02*
X14753396Y-15021150D01*
X14753396Y-15021150D02*
X14772444Y-15030674D01*
X14772444Y-15030674D02*
X14781968Y-15049722D01*
X14781968Y-15049722D02*
X14781968Y-15068769D01*
X14781968Y-15068769D02*
X14686730Y-15087817D01*
X14858158Y-15144960D02*
X14877206Y-15154484D01*
X14877206Y-15154484D02*
X14915301Y-15154484D01*
X14915301Y-15154484D02*
X14934349Y-15144960D01*
X14934349Y-15144960D02*
X14943872Y-15125912D01*
X14943872Y-15125912D02*
X14943872Y-15116388D01*
X14943872Y-15116388D02*
X14934349Y-15097341D01*
X14934349Y-15097341D02*
X14915301Y-15087817D01*
X14915301Y-15087817D02*
X14886730Y-15087817D01*
X14886730Y-15087817D02*
X14867682Y-15078293D01*
X14867682Y-15078293D02*
X14858158Y-15059246D01*
X14858158Y-15059246D02*
X14858158Y-15049722D01*
X14858158Y-15049722D02*
X14867682Y-15030674D01*
X14867682Y-15030674D02*
X14886730Y-15021150D01*
X14886730Y-15021150D02*
X14915301Y-15021150D01*
X14915301Y-15021150D02*
X14934349Y-15030674D01*
X15010539Y-15230674D02*
X15020063Y-15221150D01*
X15020063Y-15221150D02*
X15039111Y-15192579D01*
X15039111Y-15192579D02*
X15048634Y-15173531D01*
X15048634Y-15173531D02*
X15058158Y-15144960D01*
X15058158Y-15144960D02*
X15067682Y-15097341D01*
X15067682Y-15097341D02*
X15067682Y-15059246D01*
X15067682Y-15059246D02*
X15058158Y-15011627D01*
X15058158Y-15011627D02*
X15048634Y-14983055D01*
X15048634Y-14983055D02*
X15039111Y-14964008D01*
X15039111Y-14964008D02*
X15020063Y-14935436D01*
X15020063Y-14935436D02*
X15010539Y-14925912D01*
M02*
